<svg xmlns="http://www.w3.org/2000/svg" width="517" height="305" viewBox="0 0 517 305"><defs><linearGradient id="x7ela" x1="258" x2="259" y1="305" y2="0" gradientUnits="userSpaceOnUse"><stop offset="0" stop-color="#fc686f"/><stop offset="1" stop-color="#ff934c"/></linearGradient></defs><g><g><path fill="#f5c932" d="M349 305c-92.237 0-220.99-51.553-349-118.276V80C0 35.817 35.817 0 80 0h357c44.183 0 80 35.817 80 80v161.178C465.992 279.663 409.455 305 349 305z"/><path fill="url(#x7ela)" d="M349 305c-92.237 0-220.99-51.553-349-118.276V80C0 35.817 35.817 0 80 0h357c44.183 0 80 35.817 80 80v161.178C465.992 279.663 409.455 305 349 305z"/></g></g></svg>